<?xml version="1.0" encoding="UTF-8"?>
<svg version="1.2" baseProfile="tiny-ps" xmlns="http://www.w3.org/2000/svg"
     width="512" height="512" viewBox="0 0 512 512">
  <title>Farray's Center</title>

  <!-- Solid background - Brand magenta/pink -->
  <rect x="0" y="0" width="512" height="512" fill="#C41E56"/>

  <!-- Inner circle for depth -->
  <circle cx="256" cy="256" r="220" fill="#B01A4C"/>

  <!-- Dancer silhouette - artistic pose -->
  <g fill="#FFFFFF" transform="translate(256, 256) scale(0.7) translate(-256, -256)">
    <!-- Head -->
    <ellipse cx="200" cy="140" rx="28" ry="30"/>

    <!-- Neck -->
    <rect x="190" y="165" width="20" height="25" rx="5"/>

    <!-- Torso -->
    <path d="M175 185
             C170 220, 172 260, 180 300
             L220 300
             C228 260, 230 220, 225 185
             Z"/>

    <!-- Right arm - extended upward -->
    <path d="M220 195
             Q260 170, 300 130
             Q330 105, 355 85
             Q360 90, 358 98
             Q335 115, 305 140
             Q265 175, 230 200
             Z"/>

    <!-- Left arm - extended back -->
    <path d="M180 200
             Q150 210, 115 235
             Q95 250, 80 265
             Q75 260, 78 255
             Q95 240, 120 225
             Q155 205, 185 195
             Z"/>

    <!-- Right leg - extended forward high -->
    <path d="M205 295
             Q240 340, 290 390
             Q320 420, 360 445
             Q365 440, 362 435
             Q325 412, 295 385
             Q250 340, 220 300
             Z"/>

    <!-- Left leg - back support -->
    <path d="M190 295
             Q175 340, 160 390
             Q150 420, 145 450
             Q138 448, 140 442
             Q148 415, 158 385
             Q175 340, 195 300
             Z"/>

    <!-- Pointed foot detail -->
    <path d="M360 445 Q380 455, 395 450 Q390 445, 375 442 Q365 440, 362 435 Z"/>
  </g>

  <!-- Stylized cursive F -->
  <g fill="#FFFFFF" transform="translate(300, 180)">
    <path d="M0 0
             C5 -5, 15 -8, 30 -8
             C60 -8, 90 5, 100 15
             L95 25
             C85 18, 60 8, 35 8
             C25 8, 18 10, 15 15
             L15 50
             L70 50
             L70 65
             L15 65
             L15 140
             L0 140
             Z"/>
  </g>
</svg>
